<?xml version="1.0" encoding="utf-8"?>
<!-- Generator: Adobe Illustrator 27.8.0, SVG Export Plug-In . SVG Version: 6.00 Build 0)  -->
<svg version="1.2" baseProfile="tiny" id="Layer_1" xmlns="http://www.w3.org/2000/svg" xmlns:xlink="http://www.w3.org/1999/xlink"
	 x="0px" y="0px" viewBox="0 0 3880 3880" overflow="visible" xml:space="preserve">
<linearGradient id="SVGID_1_" gradientUnits="userSpaceOnUse" x1="902.4333" y1="601.6986" x2="2440.6978" y2="399.1823">
	<stop  offset="4.049120e-07" style="stop-color:#20C4F4"/>
	<stop  offset="0.2302" style="stop-color:#23C1F2"/>
	<stop  offset="0.3687" style="stop-color:#25BBED"/>
	<stop  offset="0.4828" style="stop-color:#25B2E5"/>
	<stop  offset="0.5839" style="stop-color:#26A5DB"/>
	<stop  offset="0.6762" style="stop-color:#2795CF"/>
	<stop  offset="0.7622" style="stop-color:#2982C1"/>
	<stop  offset="0.8433" style="stop-color:#296EB1"/>
	<stop  offset="0.9205" style="stop-color:#2957A2"/>
	<stop  offset="0.9921" style="stop-color:#2A3C92"/>
	<stop  offset="1" style="stop-color:#2B3990"/>
</linearGradient>
<path fill="url(#SVGID_1_)" d="M2426.18,461.11v400.22L2028,913.75l-764.41,100.64c-166.57,21.93-319.37-95.32-341.3-261.89
	l-29.63-225.04l-10.08-76.56c-21.94-166.57,95.32-319.37,261.89-341.3l498.57-65.63l256.78-33.81l19.36-2.54
	c16.65-1.85,33.56-2.8,50.69-2.8C2221.9,4.81,2426.18,209.1,2426.18,461.11z"/>
<linearGradient id="SVGID_00000006703143096261459190000010827505381924017825_" gradientUnits="userSpaceOnUse" x1="2654.3354" y1="465.7264" x2="2654.3354" y2="3370.8059">
	<stop  offset="8.417908e-07" style="stop-color:#262262"/>
	<stop  offset="0.2" style="stop-color:#92278F"/>
	<stop  offset="0.7" style="stop-color:#EE2A7B"/>
	<stop  offset="1" style="stop-color:#F7941D"/>
</linearGradient>
<path fill="url(#SVGID_00000006703143096261459190000010827505381924017825_)" d="M3338.79,1369.87v1140.27
	c0,407.3-178.89,772.95-462.6,1023.05c-7.89,6.96-15.87,13.83-23.91,20.6c-124.88,105.11-268.9,188.32-426.09,243.73
	c-142.72,50.31-296.3,77.68-456.3,77.68c252.01,0,456.3-204.3,456.3-456.3V461.11c0-252.01-204.29-456.3-456.3-456.3
	c168.7,0,330.26,30.43,479.49,86.09c317.61,118.46,579.3,351.19,734.73,648.03C3282.92,927.63,3338.79,1142.24,3338.79,1369.87z"/>
<linearGradient id="SVGID_00000173873956924579446240000013387738529851333293_" gradientUnits="userSpaceOnUse" x1="650.7662" y1="2657.2878" x2="2300.1809" y2="3609.5779">
	<stop  offset="3.516341e-07" style="stop-color:#23C4F4"/>
	<stop  offset="0.2302" style="stop-color:#26C1F2"/>
	<stop  offset="0.3687" style="stop-color:#27BBED"/>
	<stop  offset="0.4828" style="stop-color:#27B2E5"/>
	<stop  offset="0.5839" style="stop-color:#28A5DB"/>
	<stop  offset="0.6762" style="stop-color:#2895CF"/>
	<stop  offset="0.7622" style="stop-color:#2A82C1"/>
	<stop  offset="0.8433" style="stop-color:#2A6EB1"/>
	<stop  offset="0.9205" style="stop-color:#2957A2"/>
	<stop  offset="0.9921" style="stop-color:#2A3C92"/>
	<stop  offset="1" style="stop-color:#2B3990"/>
</linearGradient>
<path fill="url(#SVGID_00000173873956924579446240000013387738529851333293_)" d="M2426.18,3155.44v263.45
	c0,252-204.29,456.3-456.3,456.3c-1.25,0-2.49,0-3.75-0.01c-78.7-0.63-152.66-21.2-217.07-56.9l-14.21-8.2l-880.21-508.19
	l-161.29-93.12c-145.49-84-195.35-270.04-111.34-415.54l36.6-63.4l115.5-200.05c65.99-114.31,194.97-169.57,317.78-147.29
	c33.51,6.08,66.57,17.94,97.76,35.94l470.1,271.42h0.02l571.35,329.88l13.01,7.51L2426.18,3155.44z"/>
<path fill="#FFFFFF" stroke="#000000" stroke-miterlimit="10" d="M2423.57,3156.52c0,0.01,0,0.01-0.01,0.02
	C2423.56,3156.54,2423.56,3156.53,2423.57,3156.52z"/>
</svg>
